<svg width="984" height="167" viewBox="0 0 984 167" fill="none" xmlns="http://www.w3.org/2000/svg">
<path d="M222.84 132.408C215.416 132.408 209.016 131.213 203.64 128.824C198.349 126.349 193.485 122.637 189.048 117.688L202.104 104.76C205.005 108.088 208.205 110.691 211.704 112.568C215.288 114.36 219.427 115.256 224.12 115.256C228.387 115.256 231.672 114.488 233.976 112.952C236.365 111.416 237.56 109.283 237.56 106.552C237.56 104.077 236.792 102.072 235.256 100.536C233.72 99 231.672 97.6773 229.112 96.568C226.637 95.4587 223.864 94.392 220.792 93.368C217.805 92.344 214.819 91.192 211.832 89.912C208.845 88.5467 206.072 86.8827 203.512 84.92C201.037 82.872 199.032 80.3547 197.496 77.368C195.96 74.296 195.192 70.456 195.192 65.848C195.192 60.3013 196.515 55.5227 199.16 51.512C201.891 47.5013 205.645 44.472 210.424 42.424C215.203 40.2907 220.707 39.224 226.936 39.224C233.251 39.224 239.011 40.3333 244.216 42.552C249.507 44.7707 253.859 47.8 257.272 51.64L244.216 64.568C241.485 61.752 238.712 59.6613 235.896 58.296C233.165 56.9307 230.051 56.248 226.552 56.248C223.053 56.248 220.28 56.9307 218.232 58.296C216.184 59.576 215.16 61.4533 215.16 63.928C215.16 66.232 215.928 68.1093 217.464 69.56C219 70.9253 221.005 72.12 223.48 73.144C226.04 74.168 228.813 75.192 231.8 76.216C234.872 77.24 237.901 78.4347 240.888 79.8C243.875 81.1653 246.605 82.9147 249.08 85.048C251.64 87.096 253.688 89.7413 255.224 92.984C256.76 96.1413 257.528 100.067 257.528 104.76C257.528 113.379 254.456 120.163 248.312 125.112C242.168 129.976 233.677 132.408 222.84 132.408ZM309.625 131V95.544C309.625 92.3013 308.601 89.6987 306.553 87.736C304.59 85.688 302.073 84.664 299.001 84.664C296.868 84.664 294.99 85.1333 293.369 86.072C291.748 86.9253 290.468 88.2053 289.529 89.912C288.59 91.5333 288.121 93.4107 288.121 95.544L280.569 91.832C280.569 86.968 281.636 82.7013 283.769 79.032C285.902 75.3627 288.846 72.5467 292.601 70.584C296.441 68.536 300.75 67.512 305.529 67.512C310.137 67.512 314.19 68.6213 317.689 70.84C321.273 72.9733 324.089 75.832 326.137 79.416C328.185 83 329.209 86.9253 329.209 91.192V131H309.625ZM268.537 131V68.792H288.121V131H268.537ZM367.771 132.28C362.054 132.28 356.934 130.872 352.411 128.056C347.974 125.24 344.432 121.4 341.787 116.536C339.227 111.672 337.947 106.125 337.947 99.896C337.947 93.6667 339.227 88.12 341.787 83.256C344.432 78.392 347.974 74.552 352.411 71.736C356.934 68.92 362.054 67.512 367.771 67.512C371.952 67.512 375.707 68.3227 379.035 69.944C382.448 71.5653 385.222 73.8267 387.355 76.728C389.488 79.544 390.683 82.7867 390.939 86.456V113.336C390.683 117.005 389.488 120.291 387.355 123.192C385.307 126.008 382.576 128.227 379.163 129.848C375.75 131.469 371.952 132.28 367.771 132.28ZM371.739 114.616C375.92 114.616 379.291 113.251 381.851 110.52C384.411 107.704 385.691 104.163 385.691 99.896C385.691 96.9947 385.094 94.4347 383.899 92.216C382.79 89.9973 381.168 88.2907 379.035 87.096C376.987 85.816 374.598 85.176 371.867 85.176C369.136 85.176 366.704 85.816 364.571 87.096C362.523 88.2907 360.859 89.9973 359.579 92.216C358.384 94.4347 357.787 96.9947 357.787 99.896C357.787 102.712 358.384 105.229 359.579 107.448C360.774 109.667 362.438 111.416 364.571 112.696C366.704 113.976 369.094 114.616 371.739 114.616ZM384.923 131V114.232L387.867 99.128L384.923 84.024V68.792H404.123V131H384.923ZM453.752 132.28C449.571 132.28 445.731 131.469 442.232 129.848C438.733 128.227 435.875 126.008 433.656 123.192C431.437 120.291 430.157 117.005 429.816 113.336V87.096C430.157 83.4267 431.437 80.0987 433.656 77.112C435.875 74.1253 438.733 71.7787 442.232 70.072C445.731 68.3653 449.571 67.512 453.752 67.512C459.64 67.512 464.845 68.92 469.368 71.736C473.976 74.552 477.56 78.392 480.12 83.256C482.765 88.12 484.088 93.6667 484.088 99.896C484.088 106.125 482.765 111.672 480.12 116.536C477.56 121.4 473.976 125.24 469.368 128.056C464.845 130.872 459.64 132.28 453.752 132.28ZM417.912 157.24V68.792H437.496V84.792L434.296 99.896L437.24 115V157.24H417.912ZM450.168 114.616C452.984 114.616 455.416 113.976 457.464 112.696C459.597 111.416 461.261 109.667 462.456 107.448C463.651 105.229 464.248 102.712 464.248 99.896C464.248 96.9947 463.651 94.4347 462.456 92.216C461.261 89.9973 459.597 88.2907 457.464 87.096C455.416 85.816 453.027 85.176 450.296 85.176C447.565 85.176 445.133 85.816 443 87.096C440.952 88.2907 439.331 89.9973 438.136 92.216C436.941 94.4347 436.344 96.9947 436.344 99.896C436.344 102.712 436.899 105.229 438.008 107.448C439.203 109.667 440.867 111.416 443 112.696C445.133 113.976 447.523 114.616 450.168 114.616ZM529.877 132.28C525.696 132.28 521.856 131.469 518.357 129.848C514.858 128.227 512 126.008 509.781 123.192C507.562 120.291 506.282 117.005 505.941 113.336V87.096C506.282 83.4267 507.562 80.0987 509.781 77.112C512 74.1253 514.858 71.7787 518.357 70.072C521.856 68.3653 525.696 67.512 529.877 67.512C535.765 67.512 540.97 68.92 545.493 71.736C550.101 74.552 553.685 78.392 556.245 83.256C558.89 88.12 560.213 93.6667 560.213 99.896C560.213 106.125 558.89 111.672 556.245 116.536C553.685 121.4 550.101 125.24 545.493 128.056C540.97 130.872 535.765 132.28 529.877 132.28ZM494.037 157.24V68.792H513.621V84.792L510.421 99.896L513.365 115V157.24H494.037ZM526.293 114.616C529.109 114.616 531.541 113.976 533.589 112.696C535.722 111.416 537.386 109.667 538.581 107.448C539.776 105.229 540.373 102.712 540.373 99.896C540.373 96.9947 539.776 94.4347 538.581 92.216C537.386 89.9973 535.722 88.2907 533.589 87.096C531.541 85.816 529.152 85.176 526.421 85.176C523.69 85.176 521.258 85.816 519.125 87.096C517.077 88.2907 515.456 89.9973 514.261 92.216C513.066 94.4347 512.469 96.9947 512.469 99.896C512.469 102.712 513.024 105.229 514.133 107.448C515.328 109.667 516.992 111.416 519.125 112.696C521.258 113.976 523.648 114.616 526.293 114.616ZM587.737 131.256L562.137 68.792H583.257L599.513 118.328H591.705L608.345 68.792H629.465L602.841 131.256H587.737ZM571.737 157.24L590.425 116.92L602.841 131.256L591.833 157.24H571.737ZM705.575 132.28C699.26 132.28 693.372 131.128 687.911 128.824C682.535 126.52 677.842 123.277 673.831 119.096C669.82 114.915 666.706 110.093 664.487 104.632C662.354 99.0853 661.287 93.1547 661.287 86.84C661.287 80.5253 662.354 74.6373 664.487 69.176C666.706 63.6293 669.778 58.808 673.703 54.712C677.714 50.616 682.407 47.416 687.783 45.112C693.159 42.808 698.962 41.656 705.191 41.656C711.932 41.656 717.948 42.8507 723.239 45.24C728.615 47.6293 733.308 50.9147 737.319 55.096L730.919 61.496C727.847 58.0827 724.135 55.4373 719.783 53.56C715.431 51.5973 710.567 50.616 705.191 50.616C700.242 50.616 695.676 51.512 691.495 53.304C687.399 55.096 683.772 57.656 680.615 60.984C677.543 64.2267 675.154 68.0667 673.447 72.504C671.826 76.856 671.015 81.6347 671.015 86.84C671.015 92.0453 671.868 96.8667 673.575 101.304C675.282 105.741 677.671 109.624 680.743 112.952C683.815 116.195 687.442 118.712 691.623 120.504C695.804 122.296 700.37 123.192 705.319 123.192C710.951 123.192 715.943 122.211 720.295 120.248C724.732 118.285 728.487 115.597 731.559 112.184L737.959 118.712C734.034 122.893 729.34 126.221 723.879 128.696C718.418 131.085 712.316 132.28 705.575 132.28ZM752.213 131V40.376H761.173V131H752.213ZM807.114 132.28C801.055 132.28 795.637 130.915 790.858 128.184C786.079 125.453 782.282 121.699 779.466 116.92C776.735 112.141 775.37 106.765 775.37 100.792C775.37 94.904 776.735 89.6133 779.466 84.92C782.197 80.1413 785.909 76.3867 790.602 73.656C795.295 70.9253 800.543 69.56 806.346 69.56C811.807 69.56 816.629 70.7973 820.81 73.272C825.077 75.7467 828.405 79.2027 830.794 83.64C833.269 87.992 834.506 93.0267 834.506 98.744C834.506 99.4267 834.463 100.237 834.378 101.176C834.293 102.029 834.122 103.053 833.866 104.248H781.77V96.568H829.002L825.802 99.384C825.887 94.9467 825.119 91.1493 823.498 87.992C821.962 84.7493 819.701 82.2747 816.714 80.568C813.813 78.776 810.271 77.88 806.09 77.88C801.738 77.88 797.941 78.8187 794.698 80.696C791.455 82.5733 788.895 85.2187 787.018 88.632C785.226 91.96 784.33 95.928 784.33 100.536C784.33 105.144 785.269 109.197 787.146 112.696C789.109 116.195 791.797 118.925 795.21 120.888C798.709 122.851 802.719 123.832 807.242 123.832C810.911 123.832 814.282 123.192 817.354 121.912C820.426 120.547 823.029 118.541 825.162 115.896L830.922 121.784C828.106 125.112 824.607 127.715 820.426 129.592C816.33 131.384 811.893 132.28 807.114 132.28ZM874.325 132.28C868.608 132.28 863.488 130.915 858.965 128.184C854.442 125.368 850.858 121.613 848.213 116.92C845.653 112.227 844.373 106.936 844.373 101.048C844.373 95.0747 845.653 89.7413 848.213 85.048C850.858 80.2693 854.442 76.5147 858.965 73.784C863.488 70.968 868.565 69.56 874.197 69.56C878.805 69.56 882.901 70.4987 886.485 72.376C890.154 74.168 893.098 76.728 895.317 80.056C897.621 83.2987 899.029 87.096 899.541 91.448V110.264C899.029 114.616 897.621 118.456 895.317 121.784C893.098 125.112 890.154 127.715 886.485 129.592C882.901 131.384 878.848 132.28 874.325 132.28ZM875.733 123.704C881.962 123.704 886.954 121.613 890.709 117.432C894.549 113.251 896.469 107.747 896.469 100.92C896.469 96.3973 895.573 92.4293 893.781 89.016C892.074 85.5173 889.642 82.8293 886.485 80.952C883.413 78.9893 879.786 78.008 875.605 78.008C871.338 78.008 867.541 78.9893 864.213 80.952C860.97 82.9147 858.368 85.6453 856.405 89.144C854.528 92.5573 853.589 96.4827 853.589 100.92C853.589 105.357 854.528 109.283 856.405 112.696C858.368 116.109 861.013 118.797 864.341 120.76C867.669 122.723 871.466 123.704 875.733 123.704ZM895.957 131V114.872L897.749 100.024L895.957 85.56V70.84H904.917V131H895.957ZM966.864 131V95.672C966.864 90.3813 965.285 86.1147 962.128 82.872C959.056 79.544 954.96 77.88 949.84 77.88C946.341 77.88 943.269 78.648 940.624 80.184C937.979 81.72 935.888 83.8107 934.352 86.456C932.816 89.1013 932.048 92.1307 932.048 95.544L927.952 93.24C927.952 88.7173 929.019 84.664 931.152 81.08C933.285 77.496 936.144 74.68 939.728 72.632C943.397 70.584 947.579 69.56 952.272 69.56C956.88 69.56 960.976 70.6693 964.56 72.888C968.144 75.1067 970.917 78.0933 972.88 81.848C974.928 85.6027 975.952 89.6987 975.952 94.136V131H966.864ZM923.088 131V70.84H932.048V131H923.088Z" fill="black"/>
<path d="M0 166.62H166V0.619999H0V166.62Z" fill="black"/>
</svg>
